<svg width="15" height="15" viewBox="0 0 15 15" fill="none" xmlns="http://www.w3.org/2000/svg">
<path opacity="0.4" d="M5.40002 4.3202V10.0742C5.40002 12.0002 6.60002 13.2002 8.52002 13.2002H10.074C11.994 13.2002 13.194 12.0002 13.194 10.0802V4.3202C13.2 2.4002 12 1.2002 10.08 1.2002H8.52002C6.60002 1.2002 5.40002 2.4002 5.40002 4.3202Z" fill="#4313F7"/>
<mask id="path-2-inside-1_15230_12640" fill="white">
<path d="M3.34204 4.87182L1.33204 6.88182C1.15804 7.05582 1.15804 7.34382 1.33204 7.51782L3.34204 9.52782C3.51604 9.70182 3.80404 9.70182 3.97804 9.52782C4.15204 9.35382 4.15204 9.06582 3.97804 8.89182L2.73604 7.64982H9.15004C9.39604 7.64982 9.60004 7.44582 9.60004 7.19982C9.60004 6.95382 9.39604 6.74982 9.15004 6.74982H2.73604L3.97804 5.50782C4.06804 5.41782 4.11004 5.30382 4.11004 5.18982C4.11004 5.07582 4.06804 4.95582 3.97804 4.87182C3.80404 4.69182 3.52204 4.69182 3.34204 4.87182Z"/>
</mask>
<path d="M3.34204 4.87182L1.33204 6.88182C1.15804 7.05582 1.15804 7.34382 1.33204 7.51782L3.34204 9.52782C3.51604 9.70182 3.80404 9.70182 3.97804 9.52782C4.15204 9.35382 4.15204 9.06582 3.97804 8.89182L2.73604 7.64982H9.15004C9.39604 7.64982 9.60004 7.44582 9.60004 7.19982C9.60004 6.95382 9.39604 6.74982 9.15004 6.74982H2.73604L3.97804 5.50782C4.06804 5.41782 4.11004 5.30382 4.11004 5.18982C4.11004 5.07582 4.06804 4.95582 3.97804 4.87182C3.80404 4.69182 3.52204 4.69182 3.34204 4.87182Z" fill="#4313F7"/>
<path d="M3.34204 4.87182L2.63493 4.16471L2.63493 4.16471L3.34204 4.87182ZM1.33204 6.88182L2.03914 7.58892L2.03914 7.58892L1.33204 6.88182ZM1.33204 7.51782L2.03914 6.81071L2.03914 6.81071L1.33204 7.51782ZM3.34204 9.52782L2.63493 10.2349L2.63493 10.2349L3.34204 9.52782ZM3.97804 8.89182L4.68515 8.18471L4.68514 8.18471L3.97804 8.89182ZM2.73604 7.64982V6.64982H0.321824L2.02893 8.35692L2.73604 7.64982ZM2.73604 6.74982L2.02893 6.04271L0.321824 7.74982H2.73604V6.74982ZM3.97804 5.50782L4.68514 6.21492L4.68515 6.21492L3.97804 5.50782ZM3.97804 4.87182L3.25905 5.56684L3.27692 5.58533L3.29572 5.60287L3.97804 4.87182ZM3.34204 4.87182L2.63493 4.16471L0.624931 6.17471L1.33204 6.88182L2.03914 7.58892L4.04915 5.57892L3.34204 4.87182ZM1.33204 6.88182L0.624931 6.17471C0.060407 6.73923 0.060407 7.6604 0.624931 8.22492L1.33204 7.51782L2.03914 6.81071C2.25567 7.02723 2.25567 7.3724 2.03914 7.58892L1.33204 6.88182ZM1.33204 7.51782L0.624931 8.22492L2.63493 10.2349L3.34204 9.52782L4.04915 8.82071L2.03914 6.81071L1.33204 7.51782ZM3.34204 9.52782L2.63493 10.2349C3.19946 10.7994 4.12062 10.7994 4.68515 10.2349L3.97804 9.52782L3.27093 8.82071C3.48746 8.60419 3.83262 8.60419 4.04915 8.82071L3.34204 9.52782ZM3.97804 9.52782L4.68515 10.2349C5.24967 9.6704 5.24967 8.74923 4.68515 8.18471L3.97804 8.89182L3.27093 9.59892C3.05441 9.3824 3.05441 9.03723 3.27093 8.82071L3.97804 9.52782ZM3.97804 8.89182L4.68514 8.18471L3.44314 6.94271L2.73604 7.64982L2.02893 8.35692L3.27093 9.59892L3.97804 8.89182ZM2.73604 7.64982V8.64982H9.15004V7.64982V6.64982H2.73604V7.64982ZM9.15004 7.64982V8.64982C9.94832 8.64982 10.6 7.9981 10.6 7.19982H9.60004H8.60004C8.60004 6.89353 8.84375 6.64982 9.15004 6.64982V7.64982ZM9.60004 7.19982H10.6C10.6 6.40153 9.94832 5.74982 9.15004 5.74982V6.74982V7.74982C8.84375 7.74982 8.60004 7.5061 8.60004 7.19982H9.60004ZM9.15004 6.74982V5.74982H2.73604V6.74982V7.74982H9.15004V6.74982ZM2.73604 6.74982L3.44314 7.45692L4.68514 6.21492L3.97804 5.50782L3.27093 4.80071L2.02893 6.04271L2.73604 6.74982ZM3.97804 5.50782L4.68515 6.21492C4.97257 5.9275 5.11004 5.55472 5.11004 5.18982H4.11004H3.11004C3.11004 5.05291 3.16351 4.90813 3.27093 4.80071L3.97804 5.50782ZM4.11004 5.18982H5.11004C5.11004 4.84654 4.98554 4.44426 4.66036 4.14076L3.97804 4.87182L3.29572 5.60287C3.15054 5.46737 3.11004 5.3051 3.11004 5.18982H4.11004ZM3.97804 4.87182L4.69703 4.17679C4.12341 3.5834 3.1987 3.60094 2.63493 4.16471L3.34204 4.87182L4.04915 5.57892C3.84538 5.78269 3.48466 5.80023 3.25905 5.56684L3.97804 4.87182Z" fill="#4313F7" mask="url(#path-2-inside-1_15230_12640)"/>
</svg>
