<svg width="24" height="24" viewBox="0 0 24 24" fill="none" xmlns="http://www.w3.org/2000/svg">
<path fill-rule="evenodd" clip-rule="evenodd" d="M19.6776 2.7072C19.2871 2.31668 18.6539 2.31668 18.2634 2.7072L15.7843 5.18629C14.6547 4.74206 13.3947 4.50009 12 4.50009C7.28058 4.50009 4.10245 7.27083 2.30582 11.2734C2.09842 11.7355 2.09842 12.2647 2.30582 12.7268C2.9193 14.0935 3.69385 15.3166 4.63584 16.3348L2.70707 18.2635C2.31655 18.6541 2.31655 19.2872 2.70707 19.6778C3.0976 20.0683 3.73076 20.0683 4.12129 19.6778L19.6776 4.12141C20.0682 3.73089 20.0682 3.09772 19.6776 2.7072ZM6.04963 14.921L8.096 12.8746C8.03314 12.5931 7.99998 12.3005 7.99998 12.0001C7.99998 9.79209 9.79198 8.00009 12 8.00009C12.3003 8.00009 12.593 8.03325 12.8745 8.09611L14.1987 6.77192C13.5162 6.59301 12.7838 6.50009 12 6.50009C8.29335 6.50009 5.73691 8.57794 4.17227 12.0001C4.68829 13.1287 5.31218 14.1111 6.04963 14.921Z" fill="#4C4D61"/>
<path d="M16 12.0001C16 11.5851 15.9367 11.1848 15.8192 10.8083L13.8376 12.7898C13.6355 13.2589 13.2588 13.6356 12.7897 13.8378L10.8082 15.8193C11.1847 15.9368 11.585 16.0001 12 16.0001C14.208 16.0001 16 14.2081 16 12.0001Z" fill="#4C4D61"/>
<path d="M12 17.5001C11.095 17.5001 10.2585 17.3762 9.48832 17.1391L7.93098 18.6965C9.13241 19.2153 10.487 19.5001 12 19.5001C16.7194 19.5001 19.8975 16.7294 21.6941 12.7268C21.9016 12.2647 21.9016 11.7355 21.6941 11.2734C21.0387 9.81313 20.1993 8.5168 19.1683 7.45917L17.7555 8.87197C18.5785 9.71942 19.2668 10.7734 19.8277 12.0001C18.2631 15.4222 15.7066 17.5001 12 17.5001Z" fill="#4C4D61"/>
</svg>
